<?xml version="1.0" standalone="no"?>
<!DOCTYPE svg PUBLIC "-//W3C//DTD SVG 20010904//EN"
 "http://www.w3.org/TR/2001/REC-SVG-20010904/DTD/svg10.dtd">
<svg version="1.0" xmlns="http://www.w3.org/2000/svg"
 width="882.000000pt" height="882.000000pt" viewBox="0 0 882.000000 882.000000"
 preserveAspectRatio="xMidYMid meet">
<metadata>
Created by potrace 1.14, written by Peter Selinger 2001-2017
</metadata>
<g transform="translate(0.000000,882.000000) scale(0.100000,-0.100000)"
fill="#000000" stroke="none">
<path d="M2457 7104 c-1 -1 -58 -7 -127 -13 -251 -24 -500 -65 -700 -118 -225
-58 -558 -163 -633 -199 l-37 -18 0 -187 0 -188 -57 -3 -57 -3 -2 -325 c-2
-179 -4 -1043 -6 -1920 l-3 -1595 25 -2 c82 -7 2210 -14 4510 -16 l2664 -2 3
145 c1 80 5 945 9 1923 l7 1777 -62 0 -61 0 0 170 c0 94 1 171 2 173 1 1 -4
12 -10 24 -13 24 -88 55 -307 126 -324 106 -689 188 -940 213 -33 3 -65 7 -72
9 -23 8 -290 19 -433 19 -150 0 -420 -11 -443 -19 -6 -2 -41 -6 -77 -10 -248
-22 -607 -106 -985 -230 -108 -36 -206 -65 -217 -65 -10 0 -99 27 -196 59
-511 170 -884 249 -1272 267 -136 6 -518 12 -523 8z"/>
</g>
</svg>
